<svg id="Layer_1" data-name="Layer 1" xmlns="http://www.w3.org/2000/svg" viewBox="0 0 210.67 77.56"><defs><style>.cls-1{fill:#fff;}</style></defs><title>logo</title><path class="cls-1" d="M.05,35.21V.83H6.88V14.36H20.37V.83h6.87V35.21H20.37v-15H6.88v15Z" transform="translate(0 0)"/><path class="cls-1" d="M32.95,18.23a22.07,22.07,0,0,1,1.56-8.77,16.18,16.18,0,0,1,3.17-4.71,13.24,13.24,0,0,1,4.4-3.1A18.5,18.5,0,0,1,49.4.25q7.52,0,12,4.71t4.51,13.11q0,8.33-4.48,13t-12,4.7q-7.59,0-12.07-4.68T32.95,18.23ZM40,18q0,5.84,2.67,8.85a9.11,9.11,0,0,0,13.52,0q2.63-3,2.63-9T56.28,9.09a8.63,8.63,0,0,0-6.81-2.91,8.69,8.69,0,0,0-6.85,2.94Q40,12.07,40,18Z" transform="translate(0 0)"/><path class="cls-1" d="M71.26.83h6.87V19.46a39,39,0,0,0,.26,5.75,5.57,5.57,0,0,0,2.1,3.39A7.26,7.26,0,0,0,85,29.88a6.87,6.87,0,0,0,4.41-1.21,4.78,4.78,0,0,0,1.79-3,39.14,39.14,0,0,0,.3-5.84V.83H98.4V18.89a46.9,46.9,0,0,1-.52,8.75,9.72,9.72,0,0,1-2.05,4.31,10.37,10.37,0,0,1-4,2.8,17.24,17.24,0,0,1-6.54,1,18.66,18.66,0,0,1-7.41-1.09,10.57,10.57,0,0,1-4-3,9.5,9.5,0,0,1-1.93-3.81,42.18,42.18,0,0,1-.67-8.72Z" transform="translate(0 0)"/><path class="cls-1" d="M103.88,24l6.68-.66a8.27,8.27,0,0,0,2.45,5A7.35,7.35,0,0,0,118,30a7.59,7.59,0,0,0,5-1.42,4.24,4.24,0,0,0,1.68-3.32,3.15,3.15,0,0,0-.71-2.08,5.66,5.66,0,0,0-2.47-1.49q-1.21-.42-5.5-1.5-5.52-1.38-7.75-3.4a9,9,0,0,1-3.13-6.92,8.9,8.9,0,0,1,1.47-4.91,9.24,9.24,0,0,1,4.28-3.46,16.86,16.86,0,0,1,6.69-1.2q6.4,0,9.64,2.84a10.06,10.06,0,0,1,3.4,7.57l-6.87.3a5.91,5.91,0,0,0-1.89-3.81A6.87,6.87,0,0,0,117.5,6a7.79,7.79,0,0,0-4.69,1.24,2.51,2.51,0,0,0-1.09,2.13,2.65,2.65,0,0,0,1,2.09q1.3,1.1,6.31,2.3a33.09,33.09,0,0,1,7.41,2.47,9.59,9.59,0,0,1,3.76,3.49,10.3,10.3,0,0,1,1.36,5.48,10.2,10.2,0,0,1-1.68,5.53,9.75,9.75,0,0,1-4.59,3.83,19.09,19.09,0,0,1-7.4,1.25q-6.45,0-9.91-3T103.88,24Z" transform="translate(0 0)"/><path class="cls-1" d="M137.33,35.21V.83h25.22V6.65H144.19v7.62h17.08v5.79H144.19v9.4h19v5.79Z" transform="translate(0 0)"/><path class="cls-1" d="M0,42.58H12.55a24.28,24.28,0,0,1,6.47.66,11.36,11.36,0,0,1,5.13,3.17A15.06,15.06,0,0,1,27.4,52a25.62,25.62,0,0,1,1.11,8.13,22.81,22.81,0,0,1-1,7.32,15.19,15.19,0,0,1-3.63,6,12,12,0,0,1-4.83,2.74,20.57,20.57,0,0,1-6.17.76H0ZM6.88,48.4V71.17H12a18.5,18.5,0,0,0,4.15-.33,6.31,6.31,0,0,0,2.72-1.38,7.31,7.31,0,0,0,1.8-3.32,22.66,22.66,0,0,0,.7-6.3,20.76,20.76,0,0,0-.7-6.12,7.89,7.89,0,0,0-2-3.33,6.52,6.52,0,0,0-3.18-1.62,30.84,30.84,0,0,0-5.64-.33Z" transform="translate(0 0)"/><path class="cls-1" d="M65,77H57.55l-3-7.81H41L38.17,77H30.88L44.14,42.58H51.4ZM52.37,63.36,47.69,50.6l-4.6,12.76Z" transform="translate(0 0)"/><path class="cls-1" d="M68.73,77V42.58h6.68l13.92,23v-23h6.38V77H88.83L75.11,54.54V77Z" transform="translate(0 0)"/><path class="cls-1" d="M124.75,64.32l6.66,2.14q-1.53,5.63-5.09,8.36a15.9,15.9,0,0,1-20.18-1.95q-4.36-4.68-4.36-12.79,0-8.58,4.39-13.33A15,15,0,0,1,117.7,42a14.06,14.06,0,0,1,10.18,3.73,13.61,13.61,0,0,1,3.48,6.33l-6.8,1.64A7.3,7.3,0,0,0,122,49.46a7.16,7.16,0,0,0-4.65-1.55,7.7,7.7,0,0,0-6.14,2.74q-2.33,2.81-2.33,8.91,0,6.52,2.32,9.29a7.5,7.5,0,0,0,6,2.77,6.84,6.84,0,0,0,4.68-1.76A10.25,10.25,0,0,0,124.75,64.32Z" transform="translate(0 0)"/><path class="cls-1" d="M137.3,77V42.58h25.22V48.4H144.17V56h17.08v5.79H144.17v9.36h19V77Z" transform="translate(0 0)"/><path class="cls-1" d="M177.71,18a22.06,22.06,0,0,1,1.55-8.82,16.18,16.18,0,0,1,3.17-4.7,13.24,13.24,0,0,1,4.4-3.1A18.5,18.5,0,0,1,194.16,0q7.52,0,12,4.71t4.51,13.11q0,8.33-4.48,13t-12,4.7q-7.59,0-12.07-4.68T177.71,18Zm7.08-.23q0,5.84,2.67,8.85a9.11,9.11,0,0,0,13.52,0q2.63-3,2.63-9t-2.56-8.82a9.43,9.43,0,0,0-13.33-.33l-.33.33q-2.61,3-2.61,9Z" transform="translate(0 0)"/><path class="cls-1" d="M183.11,76.8V42.46h23.32v5.82H190v8.14h14.2v5.82H190V76.8Z" transform="translate(0 0)"/><rect class="cls-1" x="170.11" y="0.84" width="4.5" height="76.06"/></svg>